# xmcd CD Database Entry
#
# Track frame offsets:
# 150
# 13092
# 29495
# 42182
# 58625
# 76950
# 88710
# 103530
# 116625
# 136897
# 148432
# 159282
#
# Disc length: 2277 seconds
#
# Revision: 2
# Processed by: cddbd v1.4PL0 Copyright (c) Steve Scherf et al.
# Submitted via: tcd 2.0b
#
DISCID=9d08e30c
DTITLE=Los Indios Tabajaras - Beautiful Sounds
DYEAR=1900
DGENRE=
TTITLE0=Theme From New York, New York
TTITLE1=Woman In Love
TTITLE2=What I Did For Love (From The Broadway Musical A Chorus Line)
TTITLE2=
TTITLE3=Send In The Clowns (From The Musical A Little Night Music)
TTITLE4=The Rose
TTITLE5=In The Mood
TTITLE6=Annie's Song
TTITLE7=All The Things You Are
TTITLE8=(I Left My Heart) In San Francisco
TTITLE9=I'm Getting Sentimental Over You
TTITLE10=Green Green Grass Of Home
TTITLE11=Howeward Bound
EXTD=
EXTT0=
EXTT1=
EXTT2=
EXTT3=
EXTT4=
EXTT5=
EXTT6=
EXTT7=
EXTT8=
EXTT9=
EXTT10=
EXTT11=
PLAYORDER=
